<?xml version="1.0" encoding="utf-8"?>
<!-- Generator: Adobe Illustrator 28.0.0, SVG Export Plug-In . SVG Version: 6.00 Build 0)  -->
<svg version="1.1" id="Layer_1" xmlns="http://www.w3.org/2000/svg" xmlns:xlink="http://www.w3.org/1999/xlink" x="0px" y="0px"
	 viewBox="0 0 321.5 224" style="enable-background:new 0 0 321.5 224;" xml:space="preserve">
<g>
	<g>
		<path d="M192.6,207.7c-40.8,0-77.1-26.2-90.7-62.6c-0.2-0.6-0.8-0.8-1.4-0.6c-0.5,0.2-0.8,0.8-0.6,1.3c0.4,1.3,0.7,2.2,1.3,3.6
			c14.4,39.1,51.6,67,95,67c52.8,0,96.1-41.3,100.6-93.7c0-0.3-0.2-0.6-0.6-0.6h-9.4c-0.3,0-0.6,0.2-0.6,0.6
			C281.6,170.3,241.4,207.7,192.6,207.7z"/>
		<path d="M196.1,10.9c-44.1,0-81.9,28.9-95.7,69c-0.7,2-1.2,3.7-1.8,5.6c-0.2,0.6,0.2,1.2,0.8,1.4c0.5,0.1,1.1-0.2,1.3-0.7
			c13.2-40.9,54.5-70.1,100.1-66.1c45.2,4,80.9,40.3,85.2,84.6c0,0.3,0.3,0.6,0.6,0.6h9.4c0.3,0,0.6-0.3,0.6-0.6
			C292.2,52.2,248.9,10.9,196.1,10.9z"/>
	</g>
	<g>
		<path d="M189.6,110.9v-6c0-6.3-3.3-9.5-9.7-9.5h-21.2c-0.4,0-0.6,0.3-0.6,0.6v36.3c0,0.4,0.3,0.6,0.6,0.6h7.8
			c0.4,0,0.6-0.3,0.6-0.6v-12h8.4l6.3,12.1c0.2,0.3,0.5,0.5,0.9,0.5h8.4c0.4,0,0.7-0.5,0.5-0.9l-6.7-12.7
			C188,118.1,189.6,115.2,189.6,110.9z M180.5,105.2v5.3c0,0.9-0.8,1.7-1.8,1.7H167v-8.7h11.7C179.8,103.5,180.5,104.3,180.5,105.2z
			"/>
		<path d="M219.1,123.9c0,0.7-0.2,0.9-1,0.9h-12.7c-0.7,0-1-0.2-1-0.9V96c0-0.4-0.3-0.6-0.6-0.6H196c-0.4,0-0.6,0.3-0.6,0.6v27.5
			c0,6.3,3.3,9.5,9.7,9.5h13.4c6.4,0,9.7-3.2,9.7-9.5V96c0-0.4-0.3-0.6-0.6-0.6h-7.8c-0.4,0-0.6,0.3-0.6,0.6L219.1,123.9
			L219.1,123.9z"/>
		<path d="M234.4,103.5h11.4v28.8c0,0.4,0.3,0.6,0.6,0.6h7.8c0.4,0,0.6-0.3,0.6-0.6v-28.8h11.4c0.4,0,0.6-0.3,0.6-0.6v-6.8
			c0-0.4-0.3-0.6-0.6-0.6h-31.9c-0.4,0-0.6,0.3-0.6,0.6v6.8C233.8,103.2,234.1,103.5,234.4,103.5z"/>
		<path d="M117.8,90.5v4.9c0,0.3,0.1,0.6,0.2,0.8l0.8,1.6c0.1,0.3,0.4,0.5,0.8,0.5h11.6v34c0,0.4,0.3,0.6,0.6,0.6h8.3
			c0.4,0,0.6-0.3,0.6-0.6v-34h11.6c0.3,0,0.6-0.2,0.8-0.5l0.8-1.6c0.1-0.3,0.2-0.6,0.2-0.8v-4.9c0-0.4-0.3-0.6-0.6-0.6h-34.9
			C118.1,89.8,117.8,90.1,117.8,90.5z"/>
		<path d="M33.6,108.2l-12.4-2.4c-0.9-0.2-1.4-0.8-1.4-1.8v-4c0-1.1,0.5-1.6,1.7-1.6h18c0.4,0,0.6-0.3,0.6-0.6v-3.9
			c0-0.4-0.2-0.8-0.5-1l-3.4-2.5c-0.3-0.3-0.7-0.4-1.2-0.4h-14c-7.2,0-10.9,3.6-10.9,10.6v3.5c0,5.7,2.6,9.2,7.8,10.2l12.4,2.4
			c0.9,0.2,1.4,0.8,1.4,1.8v4.5c0,1.1-0.5,1.6-1.7,1.6H10.8c-0.4,0-0.6,0.3-0.6,0.6v3.9c0,0.4,0.2,0.8,0.5,1l3.4,2.5
			c0.3,0.3,0.7,0.4,1.2,0.4h15.2c7.2,0,10.9-3.6,10.9-10.6v-4C41.3,112.6,38.7,109.2,33.6,108.2z"/>
		<path d="M78.7,95.4h-8.3c-0.3,0-0.7,0.2-0.8,0.5l-7.3,13.4c-0.2,0.4-0.7,0.7-1.1,0.7h-5.7V96c0-0.4-0.3-0.6-0.6-0.6H47
			c-0.4,0-0.6,0.3-0.6,0.6v36.3c0,0.4,0.3,0.6,0.6,0.6h7.8c0.4,0,0.6-0.3,0.6-0.6v-13.6h5.7c0.5,0,0.9,0.3,1.1,0.7l7.3,13.1
			c0.2,0.3,0.5,0.5,0.8,0.5h8.3c0.4,0,0.7-0.5,0.5-0.9l-9.9-17.8l9.9-18.1C79.4,95.9,79.1,95.4,78.7,95.4z"/>
		<path d="M301.2,96v13.6h-19.9V96c0-0.4-0.3-0.6-0.6-0.6h-7.8c-0.4,0-0.6,0.3-0.6,0.6v36.3c0,0.4,0.3,0.6,0.6,0.6h7.8
			c0.4,0,0.6-0.3,0.6-0.6v-14.6h19.9v14.6c0,0.4,0.3,0.6,0.6,0.6h7.8c0.4,0,0.6-0.3,0.6-0.6V96c0-0.4-0.3-0.6-0.6-0.6h-7.8
			C301.5,95.4,301.2,95.7,301.2,96z"/>
		<path d="M105.8,95.9l-8.3,15l-8.3-15c-0.2-0.3-0.5-0.5-0.8-0.5h-6.5c-0.2,0-0.5,0.1-0.6,0.3l-0.7,1.5c-0.1,0.2-0.1,0.4,0,0.6
			l12.5,22.7v11.9c0,0.4,0.3,0.6,0.6,0.6h7.8c0.4,0,0.6-0.3,0.6-0.6v-11.9l12.5-22.7c0.1-0.2,0.1-0.4,0-0.6l-0.7-1.5
			c-0.1-0.2-0.3-0.4-0.6-0.4h-6.6C106.3,95.4,106,95.6,105.8,95.9z"/>
	</g>
</g>
</svg>
